<svg width="152" height="18" viewBox="0 0 152 18" fill="none" xmlns="http://www.w3.org/2000/svg">
<path fill-rule="evenodd" clip-rule="evenodd" d="M8 4H2V6H0V16H2V18H8V16H10V14H8V16H4V6H8V8H10V6H8V4Z" fill="#FF8800"/>
<path fill-rule="evenodd" clip-rule="evenodd" d="M42 0H46V4H48V6H46V16H48V18H44V16H42V6H40V4H42V0ZM22 4H14V6H12V16H14V18H22V16H24V6H22V4ZM20 6H16V16H20V6ZM26 4H30H36V6H38V18H34V6H30V18H26V4ZM52 4H60V6H62V12H58H54V16H60V18H52V16H50V6H52V4ZM60 16V14H62V16H60ZM54 10H58V6H54V10ZM64 4H68H74V6H76V18H72V6H68V18H64V4ZM86 4H84V0H80V4H78V6H80V16H82V18H86V16H84V6H86V4ZM96 6H98V8H96V6ZM98 6V4H106V6H108V18H104H98V16H96V12H98V10H104V6H98ZM104 12H100V16H104V12ZM110 4H114V16H118V4H122V16V18H112V16H110V4ZM126 6H124V16H126V18H132H136V0H132V4H126V6ZM132 6V16H128V6H132ZM142 0H138V2H142V0ZM138 4H142V18H138V4ZM152 4H150V0H146V4H144V6H146V16H148V18H152V16H150V6H152V4Z" fill="white"/>
</svg>
